# xmcd
#
# Track frame offsets:
#	150
#	12523
#	28640
#	40027
#	51890
#	65603
#	78187
#	88951
#	105438
#	118708
#	131216
#	144323
#
# Disc length: 2098 seconds
#
# Revision: 0
# Processed by: cddbd v1.4PL0 Copyright (c) Steve Scherf et al.
# Submitted via: MusicWizard 6.0.1
#
DISCID=9f08300c
DTITLE=Nancy Sinatra - Nancy Sinatra's Greatest Hits
DYEAR=1977
DGENRE=Country
TTITLE0=These Boots Are Made For Walking
TTITLE1=Some Velvet Morning (With Lee Hazlewood)
TTITLE2=How's That Grab You Darling
TTITLE3=Something Stupid (With Frank Sinatra)
TTITLE4=Friday's Child
TTITLE5=Jackson (With Lee Hazlewood)
TTITLE6=Sugartown
TTITLE7=Summer Wine (With Lee Hazlewood)
TTITLE8=You Only Live Twice
TTITLE9=Things (With Dean Martin)
TTITLE10=Lightning Girl
TTITLE11=Did You Ever (With Lee Hazlewood)
EXTD=(C)1977 Private Stock Records Ltd\nPVLP 1018
EXTT0=
EXTT1=
EXTT2=
EXTT3=
EXTT4=
EXTT5=
EXTT6=
EXTT7=
EXTT8=
EXTT9=
EXTT10=
EXTT11=
PLAYORDER=
